# xmcd
#
# Track frame offsets:
#	150
#	12371
#	25657
#	40861
#	55544
#	70876
#	86106
#	102067
#	115747
#	132087
#
# Disc length: 1941 seconds
#
# Revision: 1
# Processed by: cddbd v1.5.1PL2 Copyright (c) Steve Scherf et al.
# Submitted via: audiograbber 1.83.01
#
DISCID=7407930a
DTITLE=Badger Mountain Dry Band - Badger Mountain Dry Band
DYEAR=2006
DGENRE=Bluegrass
TTITLE0=Truck Drivin' Man
TTITLE1=You Don't Have To Cry
TTITLE2=Mama Cried
TTITLE3=Love, Oh Love
TTITLE4=Ticket To Ride
TTITLE5=Baby, Now That I've Found You
TTITLE6=Salt Creek
TTITLE7=Hallelujah, I'm Ready
TTITLE8=Christian Man
TTITLE9=Fair Weather
EXTD=band based in Washington State
EXTT0=
EXTT1=Stephen Stills
EXTT2=Bob Lucas
EXTT3=
EXTT4=Lennon/McCartney
EXTT5=
EXTT6=
EXTT7=
EXTT8=
EXTT9=
PLAYORDER=
